<svg width="48" height="48" viewBox="0 0 48 48" xmlns="http://www.w3.org/2000/svg"><title>icon-mail</title><g fill="#FFF" fill-rule="evenodd"><path d="M8 14.99v18.02c0 .542.45.99 1.007.99h29.986c.56 0 1.007-.446 1.007-.99V14.99c0-.542-.45-.99-1.007-.99H9.007c-.56 0-1.007.446-1.007.99zm-2 0C6 13.34 7.346 12 9.007 12h29.986C40.653 12 42 13.342 42 14.99v18.02c0 1.65-1.346 2.99-3.007 2.99H9.007C7.347 36 6 34.658 6 33.01V14.99z"/><path d="M7.553 18.894L21.763 26c1.273.636 3.198.637 4.473 0l14.21-7.106.896-.447-.895-1.79-.894.45-14.21 7.104c-.712.357-1.975.356-2.685 0l-14.21-7.104-.895-.448-.895 1.79.895.446z"/></g></svg>